<svg width="1312" height="1292" viewBox="0 0 1312 1292" fill="none" xmlns="http://www.w3.org/2000/svg">
<g filter="url(#filter0_i_25_58)">
<path d="M656 0C569.853 0 484.549 17.1241 404.96 50.3947C325.37 83.6652 253.053 132.431 192.138 193.906C69.1141 318.063 0 486.455 0 662.038C0 954.659 188.272 1202.92 448.704 1290.97C481.504 1296.27 492 1275.75 492 1257.87V1145.99C310.288 1185.71 271.584 1057.27 271.584 1057.27C241.408 980.479 198.768 959.955 198.768 959.955C139.072 918.909 203.36 920.233 203.36 920.233C268.96 924.867 303.728 988.423 303.728 988.423C360.8 1089.05 457.232 1059.26 494.624 1043.37C500.528 1000.34 517.584 971.21 535.952 954.659C390.32 938.108 237.472 881.173 237.472 628.936C237.472 555.45 262.4 496.529 305.04 449.524C298.48 432.973 275.52 364.121 311.6 274.746C311.6 274.746 366.704 256.871 492 342.274C543.824 327.709 600.24 320.426 656 320.426C711.76 320.426 768.176 327.709 820 342.274C945.296 256.871 1000.4 274.746 1000.4 274.746C1036.48 364.121 1013.52 432.973 1006.96 449.524C1049.6 496.529 1074.53 555.45 1074.53 628.936C1074.53 881.835 921.024 937.446 774.736 953.997C798.352 974.52 820 1014.9 820 1076.47V1257.87C820 1275.75 830.496 1296.93 863.952 1290.97C1124.38 1202.26 1312 954.659 1312 662.038C1312 575.098 1295.03 489.009 1262.07 408.687C1229.1 328.365 1180.78 255.382 1119.86 193.906C1058.95 132.431 986.63 83.6652 907.04 50.3947C827.451 17.1241 742.147 0 656 0Z" fill="white"/>
</g>
<defs>
<filter id="filter0_i_25_58" x="0" y="0" width="1312" height="1296" filterUnits="userSpaceOnUse" color-interpolation-filters="sRGB">
<feFlood flood-opacity="0" result="BackgroundImageFix"/>
<feBlend mode="normal" in="SourceGraphic" in2="BackgroundImageFix" result="shape"/>
<feColorMatrix in="SourceAlpha" type="matrix" values="0 0 0 0 0 0 0 0 0 0 0 0 0 0 0 0 0 0 127 0" result="hardAlpha"/>
<feOffset dy="4"/>
<feGaussianBlur stdDeviation="2"/>
<feComposite in2="hardAlpha" operator="arithmetic" k2="-1" k3="1"/>
<feColorMatrix type="matrix" values="0 0 0 0 0 0 0 0 0 0 0 0 0 0 0 0 0 0 0.25 0"/>
<feBlend mode="normal" in2="shape" result="effect1_innerShadow_25_58"/>
</filter>
</defs>
</svg>
