<svg width="1956" height="1956" viewBox="0 0 1956 1956" fill="none" xmlns="http://www.w3.org/2000/svg">
<path d="M978 1575.85L798.645 1755.2C719.358 1834.47 611.834 1879 499.72 1879C387.606 1879 280.083 1834.47 200.796 1755.2C121.529 1675.92 77 1568.39 77 1456.28C77 1344.17 121.529 1236.64 200.796 1157.36L559.505 798.647C638.792 719.381 746.316 674.852 858.43 674.852C970.544 674.852 1078.07 719.381 1157.35 798.647" stroke="white" stroke-width="154" stroke-linecap="round"/>
<path d="M978 380.15L1157.36 200.795C1236.64 121.529 1344.17 77 1456.28 77C1568.39 77 1675.92 121.529 1755.2 200.795C1834.47 280.082 1879 387.606 1879 499.72C1879 611.833 1834.47 719.357 1755.2 798.644L1396.5 1157.35C1317.21 1236.62 1209.68 1281.15 1097.57 1281.15C985.456 1281.15 877.933 1236.62 798.646 1157.35" stroke="white" stroke-width="154" stroke-linecap="round"/>
</svg>
