<svg width="1193" height="1212" viewBox="0 0 1193 1212" fill="none" xmlns="http://www.w3.org/2000/svg">
<g filter="url(#filter0_i_25_59)">
<path d="M1060.44 0C1095.6 0 1129.32 14.188 1154.18 39.4429C1179.03 64.6978 1193 98.9509 1193 134.667V1077.33C1193 1113.05 1179.03 1147.3 1154.18 1172.56C1129.32 1197.81 1095.6 1212 1060.44 1212H132.556C97.3996 1212 63.6836 1197.81 38.8246 1172.56C13.9656 1147.3 0 1113.05 0 1077.33V134.667C0 98.9509 13.9656 64.6978 38.8246 39.4429C63.6836 14.188 97.3996 0 132.556 0H1060.44ZM1027.31 1043.67V686.8C1027.31 628.583 1004.54 572.751 964.021 531.585C923.501 490.42 868.544 467.293 811.24 467.293C754.904 467.293 689.289 502.307 657.476 554.827V480.087H472.561V1043.67H657.476V711.713C657.476 659.867 698.568 617.447 749.602 617.447C774.211 617.447 797.812 627.378 815.213 645.057C832.615 662.735 842.391 686.712 842.391 711.713V1043.67H1027.31ZM257.158 374.373C286.689 374.373 315.01 362.455 335.892 341.241C356.773 320.027 368.504 291.255 368.504 261.253C368.504 198.633 318.796 147.46 257.158 147.46C227.451 147.46 198.961 159.449 177.955 180.789C156.949 202.13 145.148 231.073 145.148 261.253C145.148 323.873 195.519 374.373 257.158 374.373ZM349.284 1043.67V480.087H165.694V1043.67H349.284Z" fill="white"/>
</g>
<defs>
<filter id="filter0_i_25_59" x="0" y="0" width="1193" height="1216" filterUnits="userSpaceOnUse" color-interpolation-filters="sRGB">
<feFlood flood-opacity="0" result="BackgroundImageFix"/>
<feBlend mode="normal" in="SourceGraphic" in2="BackgroundImageFix" result="shape"/>
<feColorMatrix in="SourceAlpha" type="matrix" values="0 0 0 0 0 0 0 0 0 0 0 0 0 0 0 0 0 0 127 0" result="hardAlpha"/>
<feOffset dy="4"/>
<feGaussianBlur stdDeviation="2"/>
<feComposite in2="hardAlpha" operator="arithmetic" k2="-1" k3="1"/>
<feColorMatrix type="matrix" values="0 0 0 0 0 0 0 0 0 0 0 0 0 0 0 0 0 0 0.25 0"/>
<feBlend mode="normal" in2="shape" result="effect1_innerShadow_25_59"/>
</filter>
</defs>
</svg>
