<svg width="3972" height="5031" viewBox="0 0 3972 5031" fill="none" xmlns="http://www.w3.org/2000/svg">
<path d="M1403.13 1548.23C1551.39 1548.23 1670.52 1429.1 1670.52 1280.84C1670.52 1132.59 1551.39 1013.46 1403.13 1013.46C1254.88 1013.46 1135.74 1132.59 1135.74 1280.84C1135.74 1429.1 1254.88 1548.23 1403.13 1548.23Z" fill="white"/>
<path fill-rule="evenodd" clip-rule="evenodd" d="M1940.54 2131.51C1940.54 1845.59 1699.63 1639.1 1403.12 1639.1C1106.61 1639.1 865.699 1845.59 865.699 2131.51V2266.53C865.699 2290.36 876.288 2314.18 892.173 2330.07C908.057 2345.95 931.884 2356.54 955.71 2356.54H1850.53C1874.36 2356.54 1898.18 2345.95 1914.07 2330.07C1929.95 2314.18 1940.54 2290.36 1940.54 2266.53V2131.51ZM860.404 2912.5C860.404 2859.84 881.323 2809.33 918.559 2772.1C955.795 2734.86 1006.3 2713.94 1058.96 2713.94H2912.14C2964.8 2713.94 3015.3 2734.86 3052.54 2772.1C3089.77 2809.33 3110.69 2859.84 3110.69 2912.5C3110.69 2965.16 3089.77 3015.66 3052.54 3052.9C3015.3 3090.13 2964.8 3111.05 2912.14 3111.05H1058.96C1006.3 3111.05 955.795 3090.13 918.559 3052.9C881.323 3015.66 860.404 2965.16 860.404 2912.5ZM860.404 3706.72C860.404 3654.06 881.323 3603.55 918.559 3566.32C955.795 3529.08 1006.3 3508.16 1058.96 3508.16H2912.14C2964.8 3508.16 3015.3 3529.08 3052.54 3566.32C3089.77 3603.55 3110.69 3654.06 3110.69 3706.72C3110.69 3759.38 3089.77 3809.88 3052.54 3847.12C3015.3 3884.35 2964.8 3905.27 2912.14 3905.27H1058.96C1006.3 3905.27 955.795 3884.35 918.559 3847.12C881.323 3809.88 860.404 3759.38 860.404 3706.72Z" fill="white"/>
<path fill-rule="evenodd" clip-rule="evenodd" d="M0 529.48C0 237.736 237.736 0 529.48 0H2300.59C2449.37 0 2589.69 63.0081 2688.43 167.051L2690.02 168.904L3831.58 1413.71C3926.62 1515.11 3971.1 1647.74 3971.1 1773.76V4500.58C3971.1 4792.32 3733.36 5030.06 3441.62 5030.06H529.48C237.736 5030.06 0 4792.32 0 4500.58V529.48ZM2300.32 529.48H529.48V4500.58H3441.62V1771.64L2304.3 531.333L2303.5 531.068L2300.32 529.48Z" fill="white"/>
<path fill-rule="evenodd" clip-rule="evenodd" d="M2300.7 0C2370.92 0 2438.26 27.8922 2487.9 77.5405C2537.55 127.189 2565.44 194.526 2565.44 264.74V1509.02H3706.47C3741.24 1509.02 3775.67 1515.86 3807.78 1529.17C3839.9 1542.47 3869.09 1561.97 3893.67 1586.56C3918.26 1611.14 3937.76 1640.33 3951.06 1672.45C3964.37 1704.57 3971.21 1738.99 3971.21 1773.76C3971.21 1808.52 3964.37 1842.95 3951.06 1875.07C3937.76 1907.19 3918.26 1936.37 3893.67 1960.96C3869.09 1985.54 3839.9 2005.04 3807.78 2018.34C3775.67 2031.65 3741.24 2038.5 3706.47 2038.5H2300.7C2230.49 2038.5 2163.15 2010.6 2113.51 1960.96C2063.86 1911.31 2035.96 1843.97 2035.96 1773.76V264.74C2035.96 194.526 2063.86 127.189 2113.51 77.5405C2163.15 27.8922 2230.49 0 2300.7 0Z" fill="white"/>
</svg>
