<svg width="981" height="1252" viewBox="0 0 981 1252" fill="none" xmlns="http://www.w3.org/2000/svg">
<path d="M899.25 447.143H572.25V89.4286H81.75V1162.57H899.25V447.143ZM865.406 357.714L654 126.452V357.714H865.406ZM40.875 0H654L981 357.714V1207.29C981 1219.14 976.694 1230.52 969.028 1238.9C961.362 1247.29 950.966 1252 940.125 1252H40.875C30.0343 1252 19.6376 1247.29 11.972 1238.9C4.30647 1230.52 0 1219.14 0 1207.29V44.7143C0 32.8553 4.30647 21.4821 11.972 13.0965C19.6376 4.71095 30.0343 0 40.875 0ZM245.25 626H735.75V715.429H245.25V626ZM245.25 357.714H449.625V447.143H245.25V357.714ZM245.25 894.286H735.75V983.714H245.25V894.286Z" fill="white"/>
</svg>
