<svg width="1312" height="1292" viewBox="0 0 1312 1292" fill="none" xmlns="http://www.w3.org/2000/svg">
<g filter="url(#filter0_i_25_58)">
<path d="M656 0C569.853 0 484.549 17.1241 404.96 50.3947C325.37 83.6652 253.053 132.431 192.138 193.906C69.1141 318.063 0 486.455 0 662.038C0 954.659 188.272 1202.92 448.704 1290.97C481.504 1296.27 492 1275.75 492 1257.87V1145.99C310.288 1185.71 271.584 1057.27 271.584 1057.27C241.408 980.479 198.768 959.955 198.768 959.955C139.072 918.909 203.36 920.233 203.36 920.233C268.96 924.867 303.728 988.423 303.728 988.423C360.8 1089.05 457.232 1059.26 494.624 1043.37C500.528 1000.34 517.584 971.21 535.952 954.659C390.32 938.108 237.472 881.173 237.472 628.936C237.472 555.45 262.4 496.529 305.04 449.524C298.48 432.973 275.52 364.121 311.6 274.746C311.6 274.746 366.704 256.871 492 342.274C543.824 327.709 600.24 320.426 656 320.426C711.76 320.426 768.176 327.709 820 342.274C945.296 256.871 1000.4 274.746 1000.4 274.746C1036.48 364.121 1013.52 432.973 1006.96 449.524C1049.6 496.529 1074.53 555.45 1074.53 628.936C1074.53 881.835 921.024 937.446 774.736 953.997C798.352 974.52 820 1014.9 820 1076.47V1257.87C820 1275.75 830.496 1296.93 863.952 1290.97C1124.38 1202.26 1312 954.659 1312 662.038C1312 575.098 1295.03 489.009 1262.07 408.687C1229.1 328.365 1180.78 255.382 1119.86 193.906C1058.95 132.431 986.63 83.6652 907.04 50.3947C827.451 17.1241 742.147 0 656 0Z" fill="white"/>
</g>
<path d="M325.364 888.125C378.857 933.48 447.532 953.031 514.785 962.477C501.373 980.179 490.372 1004.62 485.206 1035.98C466.598 1043.33 437.781 1051.87 407.465 1049.22C374.826 1046.36 339.587 1030.5 312.817 983.334L312.811 983.323C312.784 983.273 312.748 983.209 312.703 983.13C312.614 982.972 312.49 982.754 312.332 982.482C312.016 981.936 311.561 981.169 310.969 980.21C309.785 978.293 308.047 975.604 305.762 972.387C301.202 965.968 294.406 957.373 285.416 948.607C267.513 931.154 240.229 912.395 204.094 909.842L203.835 909.824L203.574 909.819L203.36 920.233C203.574 909.819 203.571 909.819 203.567 909.818L203.559 909.818L203.537 909.818L203.477 909.817C203.428 909.816 203.365 909.815 203.286 909.814C203.216 909.814 203.134 909.813 203.04 909.812C202.925 909.812 202.793 909.811 202.645 909.812C202.108 909.812 201.356 909.819 200.435 909.843C198.604 909.892 196.059 910.013 193.196 910.304C187.885 910.843 179.888 912.101 173.606 915.603C170.355 917.416 166.564 920.379 164.461 925.136C162.211 930.223 162.655 935.595 164.695 940.46C168.337 949.147 177.863 958.223 192.866 968.539L193.527 968.993L194.194 969.314C194.186 969.31 194.187 969.311 194.199 969.316C194.2 969.317 194.202 969.318 194.205 969.319C194.232 969.333 194.292 969.364 194.384 969.413C194.585 969.519 194.938 969.71 195.429 969.996C196.411 970.566 197.948 971.511 199.934 972.9C203.905 975.675 209.68 980.227 216.419 987.106C229.834 1000.8 247.209 1023.85 261.76 1060.76C261.771 1060.79 261.783 1060.83 261.796 1060.87C261.9 1061.19 262.046 1061.62 262.238 1062.17C262.622 1063.26 263.19 1064.79 263.969 1066.68C265.526 1070.46 267.933 1075.72 271.407 1081.86C278.345 1094.11 289.609 1109.97 306.959 1124.51C340.484 1152.61 395.274 1174.54 481.583 1158.71V1257.87C481.583 1265.05 479.446 1271.6 475.298 1275.74C471.607 1279.41 464.675 1282.82 451.193 1280.82C195.339 1193.92 10.4167 949.778 10.4167 662.038C10.4167 489.187 78.4563 323.434 199.537 201.238C259.49 140.734 330.658 92.7448 408.977 60.0054C487.296 27.2661 571.234 10.4167 656 10.4167C740.766 10.4167 824.704 27.2661 903.023 60.0054C981.342 92.7448 1052.51 140.734 1112.46 201.238C1172.42 261.743 1219.98 333.577 1252.43 412.642C1284.88 491.708 1301.58 576.453 1301.58 662.038C1301.58 949.805 1117.28 1193.31 861.369 1280.85C847.546 1283.15 840.509 1279.7 836.785 1275.98C832.567 1271.78 830.417 1265.08 830.417 1257.87V1076.47C830.417 1024.91 815.778 986.652 796.324 961.777C863.73 952.371 932.555 933.115 986.189 888.074C1045.76 838.044 1084.94 757.654 1084.94 628.936C1084.94 555.282 1060.67 495.389 1018.9 447.279C1027.52 422.393 1044.15 355.306 1010.06 270.846L1008.24 266.338L1003.61 264.837L1000.4 274.746C1003.61 264.837 1003.6 264.834 1003.59 264.831L1003.57 264.824L1003.52 264.809C1003.49 264.798 1003.45 264.786 1003.41 264.774C1003.33 264.749 1003.24 264.721 1003.13 264.69C1002.91 264.627 1002.64 264.552 1002.31 264.469C1001.65 264.302 1000.77 264.103 999.671 263.9C997.461 263.493 994.357 263.076 990.331 262.883C982.272 262.496 970.578 263.014 955.037 266.291C924.628 272.702 879.578 289.653 818.141 330.954C766.625 316.973 710.965 310.01 656 310.01C601.035 310.01 545.375 316.973 493.859 330.954C432.422 289.653 387.371 272.702 356.963 266.291C341.422 263.014 329.728 262.496 321.669 262.883C317.643 263.076 314.539 263.493 312.329 263.9C311.225 264.103 310.346 264.302 309.69 264.469C309.361 264.552 309.089 264.627 308.872 264.69C308.763 264.721 308.668 264.749 308.587 264.774C308.547 264.786 308.51 264.798 308.476 264.809L308.428 264.824L308.407 264.831C308.396 264.834 308.386 264.837 311.6 274.746L308.386 264.837L303.761 266.338L301.941 270.846C267.845 355.306 284.48 422.393 293.105 447.279C251.326 495.389 227.055 555.282 227.055 628.936C227.055 757.317 266.066 837.85 325.364 888.125Z" stroke="white" stroke-width="20.8333"/>
<defs>
<filter id="filter0_i_25_58" x="0" y="0" width="1312" height="1296" filterUnits="userSpaceOnUse" color-interpolation-filters="sRGB">
<feFlood flood-opacity="0" result="BackgroundImageFix"/>
<feBlend mode="normal" in="SourceGraphic" in2="BackgroundImageFix" result="shape"/>
<feColorMatrix in="SourceAlpha" type="matrix" values="0 0 0 0 0 0 0 0 0 0 0 0 0 0 0 0 0 0 127 0" result="hardAlpha"/>
<feOffset dy="4"/>
<feGaussianBlur stdDeviation="2"/>
<feComposite in2="hardAlpha" operator="arithmetic" k2="-1" k3="1"/>
<feColorMatrix type="matrix" values="0 0 0 0 0 0 0 0 0 0 0 0 0 0 0 0 0 0 0.25 0"/>
<feBlend mode="normal" in2="shape" result="effect1_innerShadow_25_58"/>
</filter>
</defs>
</svg>
