<svg width="1193" height="1212" viewBox="0 0 1193 1212" fill="none" xmlns="http://www.w3.org/2000/svg">
<g filter="url(#filter0_i_25_59)">
<path d="M1060.44 0C1095.6 0 1129.32 14.188 1154.18 39.4429C1179.03 64.6978 1193 98.9508 1193 134.667V1077.33C1193 1113.05 1179.03 1147.3 1154.18 1172.56C1129.32 1197.81 1095.6 1212 1060.44 1212H132.556C97.3996 1212 63.6836 1197.81 38.8246 1172.56C13.9656 1147.3 0 1113.05 0 1077.33V134.667C0 98.9508 13.9656 64.6978 38.8246 39.4429C63.6836 14.188 97.3996 0 132.556 0H1060.44ZM1027.31 1043.67V686.8C1027.31 628.583 1004.54 572.751 964.021 531.585C923.501 490.42 868.544 467.293 811.24 467.293C754.904 467.293 689.289 502.307 657.476 554.827V480.087H472.561V1043.67H657.476V711.713C657.476 659.867 698.568 617.447 749.602 617.447C774.211 617.447 797.812 627.378 815.213 645.057C832.615 662.735 842.391 686.712 842.391 711.713V1043.67H1027.31ZM257.158 374.373C286.689 374.373 315.01 362.455 335.892 341.241C356.773 320.027 368.504 291.255 368.504 261.253C368.504 198.633 318.796 147.46 257.158 147.46C227.451 147.46 198.961 159.449 177.955 180.789C156.949 202.13 145.148 231.073 145.148 261.253C145.148 323.873 195.519 374.373 257.158 374.373ZM349.284 1043.67V480.087H165.694V1043.67H349.284Z" fill="white"/>
</g>
<path d="M1027.31 1054.08H1037.72V1043.67V686.8C1037.72 625.873 1013.9 567.409 971.445 524.278C928.985 481.141 871.36 456.877 811.24 456.877C761.182 456.877 704.772 482.606 667.892 523.543V480.087V469.67H657.476H472.561H462.144V480.087V1043.67V1054.08H472.561H657.476H667.892V1043.67V711.713C667.892 665.366 704.572 627.863 749.602 627.863C771.395 627.863 792.329 636.657 807.79 652.364C823.256 668.077 831.974 689.422 831.974 711.713V1043.67V1054.08H842.391H1027.31ZM349.284 1054.08H359.701V1043.67V480.087V469.67H349.284H165.694H155.278V480.087V1043.67V1054.08H165.694H349.284ZM1060.44 10.4167C1092.78 10.4167 1123.83 23.4666 1146.75 46.7502C1169.68 70.0394 1182.58 101.661 1182.58 134.667V1077.33C1182.58 1110.34 1169.68 1141.96 1146.75 1165.25C1123.83 1188.53 1092.78 1201.58 1060.44 1201.58H132.556C100.216 1201.58 69.1669 1188.53 46.2483 1165.25C23.3242 1141.96 10.4167 1110.34 10.4167 1077.33V134.667C10.4167 101.661 23.3242 70.0394 46.2483 46.7502C69.1669 23.4666 100.216 10.4167 132.556 10.4167H1060.44ZM257.158 384.79C289.505 384.79 320.494 371.734 343.315 348.549C366.132 325.369 378.921 293.965 378.921 261.253C378.921 193.117 324.783 137.043 257.158 137.043C224.635 137.043 193.478 150.17 170.531 173.482C147.591 196.788 134.732 228.363 134.732 261.253C134.732 329.552 189.692 384.79 257.158 384.79Z" stroke="white" stroke-width="20.8333"/>
<defs>
<filter id="filter0_i_25_59" x="0" y="0" width="1193" height="1216" filterUnits="userSpaceOnUse" color-interpolation-filters="sRGB">
<feFlood flood-opacity="0" result="BackgroundImageFix"/>
<feBlend mode="normal" in="SourceGraphic" in2="BackgroundImageFix" result="shape"/>
<feColorMatrix in="SourceAlpha" type="matrix" values="0 0 0 0 0 0 0 0 0 0 0 0 0 0 0 0 0 0 127 0" result="hardAlpha"/>
<feOffset dy="4"/>
<feGaussianBlur stdDeviation="2"/>
<feComposite in2="hardAlpha" operator="arithmetic" k2="-1" k3="1"/>
<feColorMatrix type="matrix" values="0 0 0 0 0 0 0 0 0 0 0 0 0 0 0 0 0 0 0.25 0"/>
<feBlend mode="normal" in2="shape" result="effect1_innerShadow_25_59"/>
</filter>
</defs>
</svg>
