<svg width="1376" height="1965" viewBox="0 0 1376 1965" fill="none" xmlns="http://www.w3.org/2000/svg">
<path d="M506.889 868.8C554.924 916.817 620.071 943.792 688 943.792C721.635 943.792 754.941 937.169 786.016 924.302C817.091 911.435 845.326 892.576 869.111 868.8C892.895 845.025 911.762 816.799 924.634 785.734C937.506 754.669 944.131 721.374 944.131 687.75C944.131 619.842 917.145 554.717 869.111 506.7C821.076 458.683 755.929 431.708 688 431.708C620.071 431.708 554.924 458.683 506.889 506.7C458.855 554.717 431.869 619.842 431.869 687.75C431.869 755.658 458.855 820.783 506.889 868.8ZM688 1949.34C682.99 1943.66 675.655 1935.3 666.328 1924.47C647.574 1902.71 620.765 1871.03 588.587 1831.4C524.221 1752.12 438.417 1641.07 352.634 1513.98C266.831 1386.85 181.177 1243.86 117.006 1100.67C52.7732 957.345 10.4167 814.595 10.4167 687.75C10.4167 508.111 81.8038 335.829 208.875 208.804C335.946 81.7793 508.293 10.4167 688 10.4167C867.707 10.4167 1040.05 81.7793 1167.12 208.804C1294.2 335.829 1365.58 508.111 1365.58 687.75C1365.58 814.595 1323.23 957.345 1258.99 1100.67C1194.82 1243.86 1109.17 1386.85 1023.37 1513.98C937.583 1641.07 851.779 1752.12 787.413 1831.4C755.235 1871.03 728.426 1902.71 709.672 1924.47C700.345 1935.3 693.01 1943.66 688 1949.34Z" fill="white" stroke="white" stroke-width="20.8333"/>
</svg>
