<svg width="20" height="20" viewBox="0 0 20 20" fill="none" xmlns="http://www.w3.org/2000/svg">
<path fill-rule="evenodd" clip-rule="evenodd" d="M5.27905 19.9674C6.71905 19.9144 10.8001 19.3504 15.0741 15.0774C19.3471 10.8034 19.9101 6.72344 19.9641 5.28244C20.0441 3.08644 18.3621 0.953444 16.4191 0.120444C16.1851 0.019411 15.9289 -0.0190554 15.6755 0.0088196C15.4222 0.0366946 15.1805 0.129953 14.9741 0.279444C13.3741 1.44544 12.2701 3.20944 11.3221 4.59644C11.1135 4.90117 11.0243 5.27199 11.0715 5.63824C11.1187 6.00449 11.299 6.34057 11.5781 6.58244L13.5291 8.03144C13.6233 8.09951 13.6897 8.19947 13.7158 8.31277C13.7419 8.42606 13.726 8.54498 13.6711 8.64744C13.2291 9.45044 12.4431 10.6464 11.5431 11.5464C10.6431 12.4464 9.39005 13.2844 8.53105 13.7764C8.42335 13.8369 8.29658 13.8538 8.1768 13.8237C8.05702 13.7935 7.95333 13.7187 7.88705 13.6144L6.61705 11.6814C6.38357 11.3713 6.03913 11.1635 5.65588 11.1016C5.27263 11.0397 4.88029 11.1285 4.56105 11.3494C3.15405 12.3234 1.51205 13.4084 0.310055 14.9474C0.148427 15.1553 0.045615 15.4029 0.0123672 15.6641C-0.0208805 15.9253 0.0166575 16.1907 0.121056 16.4324C0.958056 18.3854 3.07605 20.0484 5.27905 19.9674Z" fill="white"/>
</svg>
